<svg width="67" height="67" viewBox="0 0 67 67" fill="none" xmlns="http://www.w3.org/2000/svg">
<path d="M33.6756 62.8139L20.897 56.0004C17.2541 54.0623 14.2077 51.1688 12.0847 47.6304C9.96172 44.092 8.84237 40.0423 8.84675 35.9159V9.01797C8.84785 7.9208 9.28418 6.86888 10.06 6.09307C10.8358 5.31725 11.8877 4.88092 12.9849 4.87982H54.3664C55.4635 4.88092 56.5155 5.31725 57.2913 6.09307C58.0671 6.86888 58.5034 7.9208 58.5045 9.01797V35.9159C58.5089 40.0423 57.3895 44.092 55.2666 47.6304C53.1436 51.1688 50.0972 54.0623 46.4542 56.0004L33.6756 62.8139ZM12.9849 9.01797V35.9159C12.9815 39.2922 13.8976 42.6058 15.6349 45.5008C17.3722 48.3959 19.8651 50.7631 22.8461 52.3485L33.6756 58.1233L44.5052 52.3506C47.4864 50.765 49.9796 48.3974 51.7169 45.502C53.4542 42.6065 54.3702 39.2926 54.3664 35.9159V9.01797H12.9849Z" fill="white"/>
<path d="M33.6757 53.0417V13.1561H50.2282V35.5125C50.2281 38.1351 49.5159 40.7084 48.1676 42.9579C46.8193 45.2073 44.8855 47.0485 42.5727 48.2849L33.6757 53.0417Z" fill="white"/>
</svg>
