<svg width="54" height="55" viewBox="0 0 54 55" fill="none" xmlns="http://www.w3.org/2000/svg">
<path d="M51.8395 0.879822H18.5255C17.4336 0.879822 16.5514 2.15347 16.5514 3.72994V24.7495H1.99192C0.899965 24.7495 0.0177612 26.0232 0.0177612 27.5996V51.8256C0.0177612 53.4021 0.899965 54.6757 1.99192 54.6757H35.3059C36.3979 54.6757 37.2801 53.4021 37.2801 51.8256V30.806H51.8395C52.9315 30.806 53.8137 29.5324 53.8137 27.9559V3.72994C53.8137 2.15347 52.9315 0.879822 51.8395 0.879822ZM33.085 48.6192H20.7465V30.806H33.085V48.6192ZM49.6186 24.7495H37.2801V6.93632H49.6186V24.7495Z" fill="white"/>
</svg>
