<svg width="39" height="40" viewBox="0 0 39 40" fill="none" xmlns="http://www.w3.org/2000/svg">
<path d="M14.158 0.742065H25.1931V39.3648H14.158V0.742065ZM0.364212 39.3648V14.5359H11.3993V39.3648H0.364212ZM5.88174 0.742065C4.4184 0.742065 3.015 1.32337 1.98026 2.35811C0.945521 3.39285 0.364212 4.79626 0.364212 6.25959C0.364212 7.72293 0.945521 9.12634 1.98026 10.1611C3.015 11.1958 4.4184 11.7771 5.88174 11.7771C7.34508 11.7771 8.74848 11.1958 9.78322 10.1611C10.818 9.12634 11.3993 7.72293 11.3993 6.25959C11.3993 4.79626 10.818 3.39285 9.78322 2.35811C8.74848 1.32337 7.34508 0.742065 5.88174 0.742065ZM27.9519 0.742065H38.9869V11.7771H27.9519V0.742065ZM38.9869 14.5359H27.9519V25.5709H38.9869V14.5359Z" fill="white"/>
</svg>
